<?xml version="1.0" encoding="UTF-8"?>
<svg id="design" xmlns="http://www.w3.org/2000/svg" xmlns:xlink="http://www.w3.org/1999/xlink" viewBox="0 0 41.48 29.37">
  <defs>
    <style>
      .cls-1 {
        fill: #5a5a5a;
      }

      .cls-2 {
        fill: url(#_名称未設定グラデーション);
      }

      .cls-3 {
        fill: #960000;
      }

      .cls-4 {
        fill: #e60000;
      }
    </style>
    <linearGradient id="_名称未設定グラデーション" data-name="名称未設定グラデーション" x1="37.8" y1="28.66" x2="20.07" y2="10.93" gradientTransform="translate(0 32.33) scale(1 -1)" gradientUnits="userSpaceOnUse">
      <stop offset="0" stop-color="#fff"/>
      <stop offset=".75" stop-color="#e60000"/>
    </linearGradient>
  </defs>
  <path class="cls-2" d="M28.94,0c-6.93,0-12.54,5.62-12.54,12.54s5.62,12.54,12.54,12.54,12.54-5.62,12.54-12.54S35.86,0,28.94,0ZM28.94,18.52c-3.3,0-5.98-2.68-5.98-5.98s2.68-5.98,5.98-5.98,5.98,2.68,5.98,5.98-2.68,5.98-5.98,5.98Z"/>
  <path class="cls-4" d="M10.01,19.31c2.47-2.65,3.67-3.64,3.67-5.72,0-2.28-1.25-4.31-4.14-4.31-2.26,0-4.07,1.81-4.07,5.38H0C0,9.65,2.55,3.92,9.54,3.92c6.25,0,9.65,3.65,9.65,8.63,0,2.73-1.27,5.23-4.05,7.91l-4.23,4.23h11.8l-4.64,4.64H0l10.01-10.01h0Z"/>
  <path class="cls-3" d="M17.56,7.35c-.73,1.59-1.15,3.37-1.15,5.24s.4,3.58,1.11,5.15c1.14-1.69,1.68-3.37,1.68-5.15,0-2.02-.56-3.81-1.64-5.24Z"/>
  <g>
    <path class="cls-1" d="M24.31,28.18l-.51-1.49h.52l.34,1.09.84-1.09h.5l-1.2,1.52-.27,1.11h-.49l.28-1.14h0Z"/>
    <path class="cls-1" d="M26.36,26.69h1.63l-.1.39h-1.15l-.18.72h.93l-.09.37h-.93l-.19.77h1.22l-.1.39h-1.71l.64-2.63h.03Z"/>
    <path class="cls-1" d="M29.49,28.67h-1.01l-.36.65h-.47l1.52-2.63h.64l.23,2.63h-.5l-.05-.65ZM28.68,28.32h.78l-.09-1.22-.69,1.22Z"/>
    <path class="cls-1" d="M31.04,26.69h.87c.53,0,.85.25.81.7-.04.46-.36.72-.76.8l.49,1.14h-.51l-.46-1.06h-.32l-.26,1.06h-.49l.64-2.63h0ZM31.64,27.91c.36,0,.56-.15.59-.48.02-.25-.12-.36-.4-.36h-.38l-.21.84h.4Z"/>
    <path class="cls-1" d="M32.83,28.51h.47c0,.25.12.49.54.49.33,0,.52-.16.54-.42.02-.2-.09-.29-.46-.39-.54-.14-.78-.32-.74-.74.04-.43.43-.78,1.02-.78s.88.26.84.76h-.45c0-.29-.18-.39-.45-.39-.31,0-.47.16-.48.37,0,.17.08.26.46.36.54.15.79.33.75.75-.04.49-.44.85-1.08.85-.68,0-1-.37-.96-.85h0Z"/>
  </g>
</svg>